<svg xmlns="http://www.w3.org/2000/svg" width="1692" height="1916" viewBox="0 0 1692 1916" fill="none">
  <g filter="url(#filter0_f_30_13)">
    <path d="M1177.43 433.522C959.808 444.655 900.108 255.158 716.762 210.793C521.506 163.524 433.379 281.127 412.512 377.281C396.427 451.403 362.616 483.577 273.507 504.187C209.994 515.759 153.715 548.54 168.456 638.455C183.197 728.37 153.318 782.058 108.839 814.222C64.3601 846.393 22.8628 892.061 8.26776 951.557C-16.4528 1052.27 33.8008 1157.75 126.42 1204.52C230.5 1255.96 286.397 1312.27 279.087 1429.06C277.26 1458.25 289.524 1613.54 438.333 1566.6C475.917 1554.75 631.393 1474.79 725.743 1623.18C749.236 1660.13 807.409 1696.48 860.567 1709.37C1003.12 1743.87 1148.87 1639.5 1163.34 1495.79C1179.04 1389.46 1198.51 1339.6 1314.26 1376.74C1428.78 1413.48 1497.31 1255.18 1433.23 1173.97C1344.3 1082.44 1450.42 917.827 1484.12 780.474C1530.18 592.729 1367.39 413.075 1177.43 433.522Z" fill="#1A1A1A"/>
  </g>
  <defs>
    <filter id="filter0_f_30_13" x="-198" y="0" width="1890" height="1916" filterUnits="userSpaceOnUse" color-interpolation-filters="sRGB">
      <feFlood flood-opacity="0" result="BackgroundImageFix"/>
      <feBlend mode="normal" in="SourceGraphic" in2="BackgroundImageFix" result="shape"/>
      <feGaussianBlur stdDeviation="100" result="effect1_foregroundBlur_30_13"/>
    </filter>
  </defs>
</svg>